<?xml version="1.0" encoding="UTF-8"?>
<svg id="Layer_2" data-name="Layer 2" xmlns="http://www.w3.org/2000/svg" viewBox="0 0 355.59 391.45">
  <defs>
    <style>
      .cls-1 {
        fill: #0CAF60;
        stroke-width: 0px;
      }
    </style>
  </defs>
  <g id="Layer_1-2" data-name="Layer 1">
    <path class="cls-1" d="m195.09,363.95H40.89c-4.25,0-8.54.38-12.36-1.41-6.05-2.83-8.46-8.65-8.49-14.95-.12-27.67,0-55.34,0-83.01,0-45.71,0-91.43,0-137.14,0-29.75,0-59.5,0-89.25,0-3.77.05-7.09,2.02-10.47,3.24-5.53,8.69-7.35,14.77-7.38,11.08-.05,22.16-.03,33.23-.05,43.5-.06,87.01-.12,130.51-.18,31.29-.04,62.59-.19,93.88-.13,6.24.01,11.88,2.06,14.93,7.88,2.04,3.88,1.74,7.92,1.75,12.23.03,16.25.07,32.51.1,48.76.08,40.33.17,80.66.25,120.99,0,2.64.01,5.28.02,7.92.03,12.87,20.03,12.89,20,0-.07-33.15-.14-66.31-.21-99.46-.04-21.06-.09-42.13-.13-63.19-.03-14.95,1.87-30.77-8.58-43.07S298.05-.02,283.72,0c-16.66.02-33.32.05-49.99.07-46.03.06-92.05.13-138.08.19-16.39.02-32.78.05-49.16.07-3.55,0-7.1-.02-10.64.01-12.09.1-23.2,5.52-30.01,15.67S.04,37.42.04,48.76v46.6c0,45.95,0,91.9,0,137.85,0,35.47,0,70.93,0,106.4,0,2.94-.03,5.89,0,8.83.11,12.54,6.31,24.34,17.27,30.76,12.13,7.11,29.28,4.76,42.81,4.76,41.94,0,83.87,0,125.81,0h9.15c12.87,0,12.89-20,0-20h0Z"/>
    <path class="cls-1" d="m90.59,297.45h79.89c12.87,0,12.89-20,0-20h-79.89c-12.87,0-12.89,20,0,20h0Z"/>
    <path class="cls-1" d="m90.59,232.47h147.98c12.87,0,12.89-20,0-20H90.59c-12.87,0-12.89,20,0,20h0Z"/>
    <path class="cls-1" d="m90.59,171.47h147.98c12.87,0,12.89-20,0-20H90.59c-12.87,0-12.89,20,0,20h0Z"/>
    <path class="cls-1" d="m332.72,255.45h-90.26c-12.63,0-22.87,10.24-22.87,22.87v90.26c0,12.63,10.24,22.87,22.87,22.87h90.26c12.63,0,22.87-10.24,22.87-22.87v-90.26c0-12.63-10.24-22.87-22.87-22.87Zm-14.13,77.5h-21.5v21.5c0,5.25-4.25,9.5-9.5,9.5s-9.5-4.25-9.5-9.5v-21.5h-21.5c-5.25,0-9.5-4.25-9.5-9.5,0-2.62,1.06-5,2.78-6.72s4.1-2.78,6.72-2.78h21.5v-21.5c0-5.25,4.25-9.5,9.5-9.5,2.62,0,5,1.06,6.72,2.78s2.78,4.1,2.78,6.72v21.5h21.5c5.25,0,9.5,4.25,9.5,9.5s-4.25,9.5-9.5,9.5Z"/>
  </g>
</svg>