<svg width="48" height="48" viewBox="0 0 48 48" fill="none" xmlns="http://www.w3.org/2000/svg">
<path d="M15.3727 0H47.1967V31.824C47.1967 35.9011 45.577 39.8112 42.6941 42.6941C39.8111 45.5771 35.901 47.1967 31.8239 47.1967H0V15.3728C0 11.2957 1.61962 7.38552 4.50257 4.50258C7.38552 1.61963 11.2956 0 15.3727 0Z" fill="url(#paint0_linear_186_1055)"/>
<path d="M37.2882 18.5731L34.1329 20.0189L31.9178 21.0341L31.819 21.0786L28.7733 22.4543C28.7733 22.4424 28.7684 22.4306 28.7645 22.4187C28.5847 21.6693 28.238 20.9701 27.7502 20.3734L27.4688 19.7582L30.5075 18.3657L32.7552 17.3356L35.9383 15.877C36.1147 16.1522 36.2792 16.4336 36.432 16.7213L37.2635 18.5355L37.2882 18.5731Z" fill="white"/>
<path d="M37.8031 26.9091C37.5692 27.9043 37.2298 28.8717 36.7908 29.7949L26.9219 28.11L27.0147 27.5659C27.7346 26.9811 28.281 26.2107 28.5948 25.3379L37.8031 26.9091Z" fill="white"/>
<path d="M20.0143 28.4787L16.0274 31.3022L13.1772 33.3208C12.4967 32.5774 11.896 31.7648 11.3848 30.8963L14.2201 28.8875L16.2121 27.4763L18.2722 26.0176L20.0143 28.4787Z" fill="white"/>
<path d="M20.3942 16.0775L19.1617 18.8289L17.3564 18.0201L15.0701 16.996L11.8516 15.5531C12.4382 14.6831 13.1184 13.88 13.8801 13.1582L17.3919 14.7314L20.0772 15.9363L20.3942 16.0775Z" fill="white"/>
<path d="M34.3866 26.3262C33.9046 28.198 32.9352 29.9087 31.5773 31.2842C30.2193 32.6597 28.5211 33.6509 26.6556 34.1569C24.7901 34.6628 22.8238 34.6655 20.9569 34.1647C19.09 33.6638 17.3892 32.6773 16.0274 31.3056C15.3169 30.5879 14.7088 29.7757 14.2201 28.8919L11.3848 30.9007C12.8399 33.3805 15.0046 35.3675 17.5998 36.6055C20.1949 37.8435 23.1014 38.2756 25.9444 37.8461C28.7874 37.4166 31.4365 36.1452 33.5501 34.1959C35.6638 32.2467 37.1449 29.7089 37.8026 26.9098L34.3866 26.3262Z" fill="white"/>
<path d="M17.3918 14.732C18.7753 13.7349 20.3725 13.0749 22.0562 12.8044C23.7399 12.534 25.4635 12.6607 27.0895 13.1744C28.7156 13.6881 30.1991 14.5746 31.4219 15.7632C32.6447 16.9518 33.5728 18.4096 34.1324 20.0205L37.2877 18.5746C37.2818 18.5598 37.2769 18.545 37.2709 18.5312L36.4394 16.717C36.2833 16.4299 36.1188 16.1485 35.9456 15.8726C34.6617 13.857 32.8964 12.1925 30.8089 11.0291C28.7214 9.86565 26.3772 9.23994 23.9876 9.20829C21.5981 9.17665 19.2381 9.74007 17.1205 10.8478C15.003 11.9555 13.1943 13.5727 11.8574 15.5536L15.076 16.9965C15.7313 16.1309 16.5118 15.3677 17.3918 14.732Z" fill="white"/>
<path d="M13.0561 21.5078C13.1768 20.8873 13.3506 20.2784 13.5756 19.6876L10.4153 18.2715C9.17143 21.405 9.06312 24.8751 10.1092 28.0801L13.1075 25.9568C12.7851 24.4931 12.7676 22.9786 13.0561 21.5078Z" fill="white"/>
<path d="M33.9738 19.5977L31.798 20.691L31.7033 20.7394L28.7188 22.2375" fill="white"/>
<path d="M18.1261 26.0938L16.1993 27.4587C15.7116 26.5037 15.41 25.4648 15.3105 24.3971L16.385 23.6367L18.1261 26.0938Z" fill="white"/>
<path d="M19.5755 19.0718L18.343 21.8232L15.7891 20.6757C16.1365 19.7175 16.6544 18.8302 17.3179 18.0566L19.5755 19.0718Z" fill="white"/>
<path d="M31.9893 25.9161C31.524 27.5627 30.5735 29.0309 29.2616 30.1294C27.9497 31.228 26.3373 31.9058 24.6346 32.0747C22.9319 32.2435 21.2178 31.8955 19.7157 31.076C18.2136 30.2565 16.9932 29.0035 16.2136 27.4804C16.209 27.474 16.2054 27.467 16.2028 27.4597C15.4392 25.9581 15.1379 24.2638 15.3371 22.591C15.5363 20.9183 16.2269 19.3421 17.3217 18.0618L17.3582 18.0203C18.3509 16.8763 19.6306 16.0176 21.0655 15.5326C22.5004 15.0476 24.0386 14.9539 25.5218 15.261C27.005 15.5681 28.3795 16.2651 29.5038 17.28C30.628 18.295 31.4615 19.5913 31.9182 21.0354L31.8194 21.0789L28.7737 22.4536C28.7737 22.4417 28.7688 22.4299 28.7648 22.418C28.4809 21.2235 27.7766 20.1711 26.7806 19.4531C25.7846 18.7351 24.5635 18.3994 23.3405 18.5076C22.1175 18.6157 20.9742 19.1603 20.1196 20.0419C19.2651 20.9235 18.7563 22.0832 18.6863 23.309C18.6163 24.5348 18.9898 25.7449 19.7385 26.718C20.4871 27.6911 21.561 28.3623 22.7638 28.609C23.9665 28.8556 25.2179 28.6611 26.2891 28.0611C27.3603 27.4612 28.1799 26.4957 28.5979 25.3413L31.9893 25.9161Z" fill="white"/>
<defs>
<linearGradient id="paint0_linear_186_1055" x1="0.754514" y1="1.17721" x2="69.838" y2="68.9818" gradientUnits="userSpaceOnUse">
<stop stop-color="#3B916F"/>
<stop offset="1" stop-color="#096AA5"/>
</linearGradient>
</defs>
</svg>
