<?xml version="1.0" standalone="no"?>
<!DOCTYPE svg PUBLIC "-//W3C//DTD SVG 20010904//EN"
 "http://www.w3.org/TR/2001/REC-SVG-20010904/DTD/svg10.dtd">
<svg version="1.0" xmlns="http://www.w3.org/2000/svg"
 width="2000.000000pt" height="2000.000000pt" viewBox="0 0 2000.000000 2000.000000"
 preserveAspectRatio="xMidYMid meet">

<g transform="translate(0.000000,2000.000000) scale(0.100000,-0.100000)"
fill="#000000" stroke="none">
<path d="M7018 15868 c-251 -24 -462 -209 -524 -458 -21 -82 -15 -251 11 -325
34 -97 908 -2191 939 -2250 47 -90 164 -204 256 -249 84 -41 187 -66 273 -66
97 0 4759 687 4852 715 188 57 341 210 401 402 37 119 33 168 -76 943 -55 398
-105 744 -110 767 -25 110 -116 255 -203 324 -64 51 -153 96 -237 121 -66 19
-532 26 -5245 80 -148 2 -300 0 -337 -4z"/>
<path d="M10190 12300 c-2560 -378 -4806 -711 -4992 -738 -202 -31 -349 -57
-370 -67 -46 -24 -106 -83 -131 -130 -28 -54 -28 -162 0 -225 25 -56 1330
-1440 1451 -1540 181 -149 409 -230 644 -230 154 0 7710 360 7759 370 295 58
536 290 603 581 9 38 49 529 96 1183 89 1233 88 1174 27 1289 -36 69 -101 130
-177 166 -118 55 222 101 -4910 -659z"/>
<path d="M10265 8965 c-924 -34 -1734 -65 -1800 -69 -368 -19 -737 -140 -1037
-340 -129 -86 -193 -138 -317 -259 -321 -315 -525 -719 -597 -1182 -13 -77
-17 -166 -17 -300 1 -169 13 -311 117 -1300 64 -610 123 -1133 131 -1162 27
-92 115 -181 213 -215 49 -17 6187 -25 6296 -8 127 19 224 96 266 208 20 53
22 114 62 1641 45 1725 45 1681 -7 1891 -70 278 -200 507 -404 711 -298 297
-683 452 -1110 448 -64 -1 -872 -30 -1796 -64z"/>
</g>
</svg>
