<svg width="24" height="22" xmlns="http://www.w3.org/2000/svg" fill="none">

 <g>
  <title>Layer 1</title>
  <ellipse id="svg_1" fill="#F3BA2F" ry="11" rx="11" cy="11" cx="11.94386"/>
  <path id="svg_2" fill="white" d="m9.27375,9.90275l2.6703,-2.67025l2.6716,2.67163l1.5537,-1.55375l-4.2253,-4.22538l-4.224,4.224l1.5537,1.55375zm-4.2047,1.09725l1.5537,-1.55375l1.5538,1.55375l-1.5538,1.5538l-1.5537,-1.5538zm4.2047,1.0973l2.6703,2.6702l2.6716,-2.6716l1.5537,1.553l-4.2253,4.2261l-4.224,-4.224l-0.0021,-0.0021l1.5558,-1.5516zm6.4378,-1.0973l1.5537,-1.55375l1.5538,1.55375l-1.5538,1.5538l-1.5537,-1.5538zm-2.1918,-0.0014l0.0014,0l0,0.0014l-1.5771,1.5771l-1.5751,-1.5744l-0.0028,-0.0027l0.0028,-0.0021l0.2757,-0.2763l0.134,-0.1341l1.1654,-1.16462l1.5764,1.57642l-0.0007,-0.0007z"/>
 </g>
</svg>