<svg width="104.99999999999999" height="22" xmlns="http://www.w3.org/2000/svg" fill="none">

 <g>
  <title>Layer 1</title>
  <ellipse id="svg_1" fill="#F3BA2F" ry="11" rx="11" cy="11" cx="52.76018"/>
  <path id="svg_2" fill="white" d="m50.09008,9.90275l2.6703,-2.67025l2.6716,2.67163l1.5537,-1.55375l-4.2253,-4.22538l-4.224,4.224l1.5537,1.55375zm-4.2047,1.09725l1.5537,-1.55375l1.5538,1.55375l-1.5538,1.5538l-1.5537,-1.5538zm4.2047,1.0973l2.6703,2.6702l2.6716,-2.6716l1.5537,1.553l-4.2253,4.2261l-4.224,-4.224l-0.0021,-0.0021l1.5558,-1.5516zm6.4378,-1.0973l1.5537,-1.55375l1.5538,1.55375l-1.5538,1.5538l-1.5537,-1.5538zm-2.1918,-0.0014l0.0014,0l0,0.0014l-1.5771,1.5771l-1.5751,-1.5744l-0.0028,-0.0027l0.0028,-0.0021l0.2757,-0.2763l0.134,-0.1341l1.1654,-1.16462l1.5764,1.57642l-0.0007,-0.0007z"/>
  <path id="svg_3" fill="#627EEA" d="m93.75978,22c6.076,0 11,-4.9249 11,-11c0,-6.07513 -4.924,-11 -11,-11c-6.075,0 -11,4.92487 -11,11c0,6.0751 4.925,11 11,11z"/>
  <path id="svg_4" fill-opacity="0.602" fill="white" d="m94.10378,2.75l0,6.09813l5.154,2.30317l-5.154,-8.4013z"/>
  <path id="svg_5" fill="white" d="m94.10278,2.75l-5.155,8.4013l5.155,-2.30317l0,-6.09813z"/>
  <path id="svg_6" fill-opacity="0.602" fill="white" d="m94.10378,15.1036l0,4.1435l5.158,-7.1355l-5.158,2.992z"/>
  <path id="svg_7" fill="white" d="m94.10278,19.2471l0,-4.1442l-5.155,-2.9913l5.155,7.1355z"/>
  <path id="svg_8" fill-opacity="0.2" fill="white" d="m94.10378,14.1441l5.154,-2.9927l-5.154,-2.30174l0,5.29444z"/>
  <path id="svg_9" fill-opacity="0.602" fill="white" d="m88.94778,11.1514l5.155,2.9927l0,-5.29444l-5.155,2.30174z"/>
  <path id="svg_10" fill="#26A17B" d="m11.32866,22c6.0751,0 11,-4.9249 11,-11c0,-6.07513 -4.9249,-11 -11,-11c-6.07513,0 -11,4.92487 -11,11c0,6.0751 4.92487,11 11,11z"/>
  <path id="svg_11" fill="white" d="m12.64896,11.9511l0,-0.0014c-0.0756,0.0055 -0.4654,0.0289 -1.3351,0.0289c-0.6944,0 -1.18319,-0.0206 -1.35506,-0.0289l0,0.0021c-2.673,-0.1176 -4.66813,-0.583 -4.66813,-1.1399c0,-0.5562 1.99513,-1.02161 4.66813,-1.14123l0,1.81773c0.17462,0.0124 0.67516,0.042 1.36676,0.042c0.8298,0 1.2457,-0.0344 1.3234,-0.0413l0,-1.81706c2.6675,0.11894 4.6578,0.58436 4.6578,1.13986c0,0.5569 -1.9903,1.021 -4.6578,1.1392zm0,-2.46812l0,-1.62663l3.7222,0l0,-2.4805l-10.13449,0l0,2.4805l3.72213,0l0,1.62594c-3.025,0.13888 -5.29994,0.73841 -5.29994,1.45611c0,0.7178 2.27494,1.3166 5.29994,1.4561l0,5.2127l2.69016,0l0,-5.214c3.0202,-0.1389 5.2897,-0.7377 5.2897,-1.4548c0,-0.717 -2.2695,-1.31586 -5.2897,-1.45542z" clip-rule="evenodd" fill-rule="evenodd"/>
 </g>
</svg>